G04 #@! TF.FileFunction,Copper,L1,Top,Mixed*
%FSLAX46Y46*%
G04 Gerber Fmt 4.6, Leading zero omitted, Abs format (unit mm)*
G04 Created by KiCad (PCBNEW 4.0.6) date 2017 July 12, Wednesday 19:30:04*
%MOMM*%
%LPD*%
G01*
G04 APERTURE LIST*
%ADD10C,0.100000*%
%ADD11R,0.900000X0.500000*%
%ADD12R,0.250000X1.000000*%
%ADD13R,1.000000X0.250000*%
%ADD14R,0.800000X0.750000*%
%ADD15R,1.350000X1.350000*%
%ADD16O,1.350000X1.350000*%
%ADD17R,1.700000X1.700000*%
%ADD18O,1.700000X1.700000*%
%ADD19R,0.800000X0.800000*%
%ADD20R,1.000000X1.800000*%
%ADD21R,0.900000X1.000000*%
%ADD22R,2.000000X3.500000*%
%ADD23R,7.000000X7.000000*%
%ADD24R,1.450000X0.700000*%
%ADD25R,0.500000X0.900000*%
%ADD26R,2.400000X0.750000*%
%ADD27C,2.400000*%
%ADD28R,2.400000X2.400000*%
%ADD29R,2.300000X0.500000*%
%ADD30R,2.500000X2.000000*%
%ADD31R,0.750000X0.800000*%
%ADD32R,2.600000X1.600000*%
%ADD33R,0.300000X0.825000*%
%ADD34R,0.300000X0.850000*%
%ADD35R,0.825000X0.300000*%
%ADD36R,0.850000X0.300000*%
%ADD37R,2.600000X2.600000*%
%ADD38C,0.685800*%
%ADD39C,0.152400*%
%ADD40C,0.406400*%
%ADD41C,0.600000*%
%ADD42C,0.812800*%
%ADD43C,0.203200*%
G04 APERTURE END LIST*
D10*
D11*
X251000000Y-137350000D03*
X251000000Y-135850000D03*
D12*
X241000000Y-125150000D03*
X240500000Y-125150000D03*
X240000000Y-125150000D03*
X239500000Y-125150000D03*
X239000000Y-125150000D03*
X238500000Y-125150000D03*
X238000000Y-125150000D03*
X237500000Y-125150000D03*
X237000000Y-125150000D03*
X236500000Y-125150000D03*
X236000000Y-125150000D03*
X235500000Y-125150000D03*
X235000000Y-125150000D03*
X234500000Y-125150000D03*
X234000000Y-125150000D03*
X233500000Y-125150000D03*
D13*
X231550000Y-127100000D03*
X231550000Y-127600000D03*
X231550000Y-128100000D03*
X231550000Y-128600000D03*
X231550000Y-129100000D03*
X231550000Y-129600000D03*
X231550000Y-130100000D03*
X231550000Y-130600000D03*
X231550000Y-131100000D03*
X231550000Y-131600000D03*
X231550000Y-132100000D03*
X231550000Y-132600000D03*
X231550000Y-133100000D03*
X231550000Y-133600000D03*
X231550000Y-134100000D03*
X231550000Y-134600000D03*
D12*
X233500000Y-136550000D03*
X234000000Y-136550000D03*
X234500000Y-136550000D03*
X235000000Y-136550000D03*
X235500000Y-136550000D03*
X236000000Y-136550000D03*
X236500000Y-136550000D03*
X237000000Y-136550000D03*
X237500000Y-136550000D03*
X238000000Y-136550000D03*
X238500000Y-136550000D03*
X239000000Y-136550000D03*
X239500000Y-136550000D03*
X240000000Y-136550000D03*
X240500000Y-136550000D03*
X241000000Y-136550000D03*
D13*
X242950000Y-134600000D03*
X242950000Y-134100000D03*
X242950000Y-133600000D03*
X242950000Y-133100000D03*
X242950000Y-132600000D03*
X242950000Y-132100000D03*
X242950000Y-131600000D03*
X242950000Y-131100000D03*
X242950000Y-130600000D03*
X242950000Y-130100000D03*
X242950000Y-129600000D03*
X242950000Y-129100000D03*
X242950000Y-128600000D03*
X242950000Y-128100000D03*
X242950000Y-127600000D03*
X242950000Y-127100000D03*
D14*
X227150000Y-133000000D03*
X225650000Y-133000000D03*
D15*
X245400000Y-122400000D03*
D16*
X243400000Y-122400000D03*
D17*
X245200000Y-141400000D03*
D18*
X245200000Y-138860000D03*
X245200000Y-136320000D03*
D19*
X239000000Y-147200000D03*
X240600000Y-147200000D03*
X239000000Y-144200000D03*
X240600000Y-144200000D03*
X239000000Y-150200000D03*
X240600000Y-150200000D03*
D14*
X215950000Y-121600000D03*
X217450000Y-121600000D03*
X215850000Y-140600000D03*
X217350000Y-140600000D03*
X215850000Y-138000000D03*
X217350000Y-138000000D03*
X217450000Y-122800000D03*
X215950000Y-122800000D03*
X217350000Y-139200000D03*
X215850000Y-139200000D03*
X215950000Y-124200000D03*
X217450000Y-124200000D03*
X220250000Y-118500000D03*
X221750000Y-118500000D03*
X220250000Y-134800000D03*
X221750000Y-134800000D03*
X217450000Y-120400000D03*
X215950000Y-120400000D03*
X217350000Y-136800000D03*
X215850000Y-136800000D03*
X217450000Y-119200000D03*
X215950000Y-119200000D03*
X217350000Y-135600000D03*
X215850000Y-135600000D03*
D20*
X236950000Y-122200000D03*
X234450000Y-122200000D03*
D21*
X256350000Y-127150000D03*
X256350000Y-140650000D03*
X257850000Y-140650000D03*
X259350000Y-140650000D03*
X260850000Y-140650000D03*
X262350000Y-140650000D03*
X263850000Y-140650000D03*
X265350000Y-140650000D03*
X266850000Y-140650000D03*
X266850000Y-127150000D03*
X265350000Y-127150000D03*
X263850000Y-127150000D03*
X262350000Y-127150000D03*
X260850000Y-127150000D03*
X259350000Y-127150000D03*
X257850000Y-127150000D03*
D22*
X210050000Y-131125000D03*
X205470000Y-131125000D03*
D23*
X207750000Y-138525000D03*
D24*
X258820000Y-114600000D03*
X263980000Y-114600000D03*
X263980000Y-112600000D03*
X258820000Y-112600000D03*
D11*
X251800000Y-117050000D03*
X251800000Y-118550000D03*
X253200000Y-117050000D03*
X253200000Y-118550000D03*
X256000000Y-118550000D03*
X256000000Y-117050000D03*
X249600000Y-137350000D03*
X249600000Y-135850000D03*
X252400000Y-137350000D03*
X252400000Y-135850000D03*
D25*
X227150000Y-127600000D03*
X225650000Y-127600000D03*
X227150000Y-130400000D03*
X225650000Y-130400000D03*
X227150000Y-129000000D03*
X225650000Y-129000000D03*
D11*
X250400000Y-118550000D03*
X250400000Y-117050000D03*
X257400000Y-118550000D03*
X257400000Y-117050000D03*
X249000000Y-117050000D03*
X249000000Y-118550000D03*
X247600000Y-117050000D03*
X247600000Y-118550000D03*
X230800000Y-118550000D03*
X230800000Y-117050000D03*
X232200000Y-118550000D03*
X232200000Y-117050000D03*
X233600000Y-118550000D03*
X233600000Y-117050000D03*
X226600000Y-118550000D03*
X226600000Y-117050000D03*
X228000000Y-118550000D03*
X228000000Y-117050000D03*
X229400000Y-118550000D03*
X229400000Y-117050000D03*
X232000000Y-141050000D03*
X232000000Y-142550000D03*
X233400000Y-141050000D03*
X233400000Y-142550000D03*
X234800000Y-141050000D03*
X234800000Y-142550000D03*
X236200000Y-141050000D03*
X236200000Y-142550000D03*
X237600000Y-141050000D03*
X237600000Y-142550000D03*
X239000000Y-141050000D03*
X239000000Y-142550000D03*
X249600000Y-141050000D03*
X249600000Y-142550000D03*
X251000000Y-141050000D03*
X251000000Y-142550000D03*
X252400000Y-141050000D03*
X252400000Y-142550000D03*
D26*
X252150000Y-130740000D03*
X248250000Y-130740000D03*
X252150000Y-129470000D03*
X248250000Y-129470000D03*
X252150000Y-128200000D03*
X248250000Y-128200000D03*
X252150000Y-126930000D03*
X248250000Y-126930000D03*
X252150000Y-125660000D03*
X248250000Y-125660000D03*
D27*
X249500000Y-112200000D03*
D28*
X253000000Y-112200000D03*
D27*
X232200000Y-112200000D03*
X228700000Y-112200000D03*
D28*
X235700000Y-112200000D03*
D27*
X211400000Y-112200000D03*
X207900000Y-112200000D03*
D28*
X214900000Y-112200000D03*
D27*
X232200000Y-147200000D03*
X235700000Y-147200000D03*
D28*
X228700000Y-147200000D03*
D29*
X211000000Y-121000000D03*
X211000000Y-121800000D03*
X211000000Y-122600000D03*
X211000000Y-123400000D03*
X211000000Y-124200000D03*
D30*
X210900000Y-118150000D03*
X205400000Y-118150000D03*
X210900000Y-127050000D03*
X205400000Y-127050000D03*
D19*
X259800000Y-109200000D03*
X261400000Y-109200000D03*
X259800000Y-117600000D03*
X261400000Y-117600000D03*
X259800000Y-120600000D03*
X261400000Y-120600000D03*
X259800000Y-123600000D03*
X261400000Y-123600000D03*
X239000000Y-112200000D03*
X240600000Y-112200000D03*
X239000000Y-109200000D03*
X240600000Y-109200000D03*
X239000000Y-115200000D03*
X240600000Y-115200000D03*
X218200000Y-112200000D03*
X219800000Y-112200000D03*
X218200000Y-109200000D03*
X219800000Y-109200000D03*
X218200000Y-115200000D03*
X219800000Y-115200000D03*
X218200000Y-147200000D03*
X219800000Y-147200000D03*
X218200000Y-144200000D03*
X219800000Y-144200000D03*
X218200000Y-150200000D03*
X219800000Y-150200000D03*
X259800000Y-147200000D03*
X261400000Y-147200000D03*
X259800000Y-144200000D03*
X261400000Y-144200000D03*
X259800000Y-150200000D03*
X261400000Y-150200000D03*
D31*
X254600000Y-118550000D03*
X254600000Y-117050000D03*
D32*
X215400000Y-129800000D03*
X219000000Y-129800000D03*
D31*
X235000000Y-118550000D03*
X235000000Y-117050000D03*
D14*
X215850000Y-134400000D03*
X217350000Y-134400000D03*
D31*
X236200000Y-118550000D03*
X236200000Y-117050000D03*
D14*
X227150000Y-134200000D03*
X225650000Y-134200000D03*
X227150000Y-136600000D03*
X225650000Y-136600000D03*
X227150000Y-135400000D03*
X225650000Y-135400000D03*
D31*
X237400000Y-118550000D03*
X237400000Y-117050000D03*
X240400000Y-141050000D03*
X240400000Y-142550000D03*
D14*
X227150000Y-131800000D03*
X225650000Y-131800000D03*
D31*
X230600000Y-141050000D03*
X230600000Y-142550000D03*
X229400000Y-141050000D03*
X229400000Y-142550000D03*
X238600000Y-118550000D03*
X238600000Y-117050000D03*
X239800000Y-118550000D03*
X239800000Y-117050000D03*
X241000000Y-118550000D03*
X241000000Y-117050000D03*
D27*
X211400000Y-147200000D03*
X214900000Y-147200000D03*
D28*
X207900000Y-147200000D03*
D25*
X225650000Y-126200000D03*
X227150000Y-126200000D03*
D27*
X253000000Y-147200000D03*
X256500000Y-147200000D03*
D28*
X249500000Y-147200000D03*
D33*
X220600000Y-140825000D03*
D34*
X221100000Y-140800000D03*
X221600000Y-140800000D03*
X222100000Y-140800000D03*
X222600000Y-140800000D03*
D33*
X223100000Y-140825000D03*
D35*
X223825000Y-140100000D03*
D36*
X223800000Y-139600000D03*
X223800000Y-139100000D03*
X223800000Y-138600000D03*
X223800000Y-138100000D03*
D35*
X223825000Y-137600000D03*
D33*
X223100000Y-136875000D03*
D34*
X222600000Y-136900000D03*
X222100000Y-136900000D03*
X221600000Y-136900000D03*
X221100000Y-136900000D03*
D33*
X220600000Y-136875000D03*
D35*
X219875000Y-137600000D03*
D36*
X219900000Y-138100000D03*
X219900000Y-138600000D03*
X219900000Y-139100000D03*
X219900000Y-139600000D03*
X219900000Y-140100000D03*
D37*
X221850000Y-138850000D03*
D33*
X220600000Y-124425000D03*
D34*
X221100000Y-124400000D03*
X221600000Y-124400000D03*
X222100000Y-124400000D03*
X222600000Y-124400000D03*
D33*
X223100000Y-124425000D03*
D35*
X223825000Y-123700000D03*
D36*
X223800000Y-123200000D03*
X223800000Y-122700000D03*
X223800000Y-122200000D03*
X223800000Y-121700000D03*
D35*
X223825000Y-121200000D03*
D33*
X223100000Y-120475000D03*
D34*
X222600000Y-120500000D03*
X222100000Y-120500000D03*
X221600000Y-120500000D03*
X221100000Y-120500000D03*
D33*
X220600000Y-120475000D03*
D35*
X219875000Y-121200000D03*
D36*
X219900000Y-121700000D03*
X219900000Y-122200000D03*
X219900000Y-122700000D03*
X219900000Y-123200000D03*
X219900000Y-123700000D03*
D37*
X221850000Y-122450000D03*
D38*
X222600000Y-135600000D03*
X219400000Y-135600000D03*
X216700000Y-127400000D03*
X216700000Y-118100000D03*
X230000000Y-135200000D03*
X228300000Y-132400000D03*
X253600000Y-137600000D03*
X237700000Y-132400000D03*
X237700000Y-130100000D03*
X245400000Y-117800000D03*
X223200000Y-132400000D03*
X232900000Y-132400000D03*
X219400000Y-119200000D03*
X222600000Y-119200000D03*
X224600000Y-133600000D03*
X229400000Y-133400000D03*
X215000000Y-120400000D03*
X221100000Y-119400000D03*
X221100000Y-135800000D03*
X224600000Y-136600000D03*
X221300000Y-129800000D03*
X235000000Y-126300000D03*
X241800000Y-132600000D03*
X220600000Y-113700000D03*
X241400000Y-113700000D03*
X242200000Y-117000000D03*
X238000000Y-115900000D03*
X224600000Y-127600000D03*
X220700000Y-146300000D03*
X220900000Y-144200000D03*
X228200000Y-141800000D03*
X235600000Y-115900000D03*
X215000000Y-124200000D03*
X208100000Y-118150000D03*
X217300000Y-133400000D03*
X254000000Y-129500000D03*
X254600000Y-116000000D03*
X261900000Y-110300000D03*
X261400000Y-114600000D03*
X261400000Y-122600000D03*
X214800000Y-136800000D03*
X215800000Y-141500000D03*
X260900000Y-141900000D03*
X261400000Y-149100000D03*
X220800000Y-150200000D03*
X240600000Y-146100000D03*
X241500000Y-142600000D03*
X210500000Y-135700000D03*
X210500000Y-137450000D03*
X210500000Y-139450000D03*
X210500000Y-141200000D03*
X208750000Y-141200000D03*
X208750000Y-139450000D03*
X208750000Y-137450000D03*
X208750000Y-135700000D03*
X206750000Y-135700000D03*
X206750000Y-137450000D03*
X206750000Y-139450000D03*
X206750000Y-141200000D03*
X205000000Y-141200000D03*
X205000000Y-139450000D03*
X205000000Y-137450000D03*
X205000000Y-135700000D03*
X213800000Y-125300000D03*
X215200000Y-126700000D03*
X222300000Y-142200000D03*
X219900000Y-142200000D03*
X223400000Y-143500000D03*
X225000000Y-144800000D03*
X223500000Y-142200000D03*
X228200000Y-142800000D03*
X241700000Y-144200000D03*
X224500000Y-142200000D03*
X230600000Y-145500000D03*
X218100000Y-117700000D03*
X222100000Y-125500000D03*
X219700000Y-124600000D03*
X230100000Y-115900000D03*
X226900000Y-123900000D03*
X225800000Y-140200000D03*
X238000000Y-135400000D03*
X238300000Y-138500000D03*
X228100000Y-138700000D03*
X248200000Y-131800000D03*
X245500000Y-132400000D03*
X250000000Y-128200000D03*
X244400000Y-134100000D03*
X246300000Y-126100000D03*
X244300000Y-126100000D03*
X251800000Y-124200000D03*
X251800000Y-116100000D03*
X227800000Y-120500000D03*
X227800000Y-123900000D03*
X229400000Y-124700000D03*
X229400000Y-121200000D03*
X228700000Y-120500000D03*
X228700000Y-123900000D03*
X247600000Y-116100000D03*
X245900000Y-128400000D03*
X249000000Y-116100000D03*
X245900000Y-129300000D03*
X226600000Y-139700000D03*
X237100000Y-137800000D03*
X245700000Y-134900000D03*
X255500000Y-131700000D03*
X236500000Y-138400000D03*
X228800000Y-138200000D03*
X245300000Y-134100000D03*
X253200000Y-133100000D03*
X239700000Y-126300000D03*
X238300000Y-126300000D03*
X226200000Y-137500000D03*
X235500000Y-135400000D03*
X227400000Y-139200000D03*
X235800000Y-137800000D03*
X253900000Y-132400000D03*
X246200000Y-133100000D03*
X238400000Y-128000000D03*
X236700000Y-126300000D03*
X265300000Y-130000000D03*
X257400000Y-119900000D03*
X218800000Y-122200000D03*
X218800000Y-118500000D03*
X212600000Y-132000000D03*
X213600000Y-133000000D03*
X218800000Y-138600000D03*
X218800000Y-134800000D03*
X254100000Y-125600000D03*
X244800000Y-131200000D03*
X247200000Y-134700000D03*
X250700000Y-134700000D03*
D39*
X232100000Y-123900000D02*
X232100000Y-123900000D01*
X217450000Y-119800000D02*
X216900000Y-119800000D01*
X215400000Y-128700000D02*
X215400000Y-129800000D01*
X216700000Y-127400000D02*
X215400000Y-128700000D01*
X216700000Y-119600000D02*
X216700000Y-118100000D01*
X216900000Y-119800000D02*
X216700000Y-119600000D01*
X217350000Y-136200000D02*
X216800000Y-136200000D01*
X216600000Y-136000000D02*
X216600000Y-132400000D01*
X216800000Y-136200000D02*
X216600000Y-136000000D01*
X230000000Y-141050000D02*
X230000000Y-135200000D01*
X227700000Y-133000000D02*
X228300000Y-132400000D01*
X227150000Y-133000000D02*
X227700000Y-133000000D01*
X252150000Y-130740000D02*
X252150000Y-133850000D01*
X253600000Y-135300000D02*
X253600000Y-137600000D01*
X252150000Y-133850000D02*
X253600000Y-135300000D01*
X256350000Y-140650000D02*
X256350000Y-139650000D01*
X254300000Y-137600000D02*
X253600000Y-137600000D01*
X256350000Y-139650000D02*
X254300000Y-137600000D01*
X253350000Y-137350000D02*
X252400000Y-137350000D01*
X253600000Y-137600000D02*
X253350000Y-137350000D01*
X245400000Y-117800000D02*
X240000000Y-117800000D01*
X239800000Y-118000000D02*
X239800000Y-118550000D01*
X240000000Y-117800000D02*
X239800000Y-118000000D01*
D40*
X237700000Y-132400000D02*
X237700000Y-130100000D01*
D39*
X245400000Y-117800000D02*
X250400000Y-117800000D01*
X246800000Y-121600000D02*
X245200000Y-120000000D01*
X244300000Y-127100000D02*
X246800000Y-124600000D01*
X246800000Y-124600000D02*
X246800000Y-121600000D01*
X242950000Y-127100000D02*
X244300000Y-127100000D01*
X241000000Y-119300000D02*
X241000000Y-118550000D01*
X241700000Y-120000000D02*
X241000000Y-119300000D01*
X245200000Y-120000000D02*
X241700000Y-120000000D01*
X244400000Y-121600000D02*
X243500000Y-120700000D01*
X238600000Y-118550000D02*
X238600000Y-119300000D01*
X241300000Y-124000000D02*
X243600000Y-124000000D01*
X243600000Y-124000000D02*
X244400000Y-123200000D01*
X244400000Y-123200000D02*
X244400000Y-121600000D01*
X241000000Y-124300000D02*
X241000000Y-125150000D01*
X241000000Y-124300000D02*
X241300000Y-124000000D01*
X240000000Y-120700000D02*
X238600000Y-119300000D01*
X243500000Y-120700000D02*
X240000000Y-120700000D01*
D41*
X216600000Y-132400000D02*
X223200000Y-132400000D01*
X215400000Y-131200000D02*
X216600000Y-132400000D01*
X215400000Y-129800000D02*
X215400000Y-131200000D01*
X232900000Y-132400000D02*
X237700000Y-132400000D01*
X205720000Y-128720000D02*
X211720000Y-128720000D01*
X211720000Y-128720000D02*
X212800000Y-129800000D01*
X212800000Y-129800000D02*
X215400000Y-129800000D01*
X205470000Y-128970000D02*
X205720000Y-128720000D01*
X205720000Y-128720000D02*
X205740000Y-128700000D01*
X205470000Y-131125000D02*
X205470000Y-128970000D01*
D39*
X229400000Y-134900000D02*
X229400000Y-141050000D01*
X230200000Y-134100000D02*
X229400000Y-134900000D01*
X231550000Y-134100000D02*
X230200000Y-134100000D01*
X230600000Y-134800000D02*
X230600000Y-141050000D01*
X230600000Y-141050000D02*
X230000000Y-141050000D01*
X230000000Y-141050000D02*
X229400000Y-141050000D01*
X239800000Y-118550000D02*
X241000000Y-118550000D01*
X239800000Y-118550000D02*
X238600000Y-118550000D01*
X222100000Y-120500000D02*
X222100000Y-119700000D01*
X222100000Y-119700000D02*
X222600000Y-119200000D01*
X222600000Y-120500000D02*
X222600000Y-119200000D01*
X222100000Y-136900000D02*
X222100000Y-136100000D01*
X222100000Y-136100000D02*
X222600000Y-135600000D01*
X222600000Y-136900000D02*
X222600000Y-135600000D01*
X219875000Y-121200000D02*
X219200000Y-121200000D01*
X218400000Y-120400000D02*
X217450000Y-120400000D01*
X219200000Y-121200000D02*
X218400000Y-120400000D01*
X217450000Y-119200000D02*
X219400000Y-119200000D01*
X219400000Y-119200000D02*
X220000000Y-119200000D01*
X220600000Y-119800000D02*
X220600000Y-120475000D01*
X220000000Y-119200000D02*
X220600000Y-119800000D01*
X217450000Y-120400000D02*
X217450000Y-119800000D01*
X217450000Y-119800000D02*
X217450000Y-119200000D01*
X250400000Y-118550000D02*
X250400000Y-117800000D01*
X253200000Y-117050000D02*
X253200000Y-117500000D01*
X253200000Y-117500000D02*
X252900000Y-117800000D01*
X252900000Y-117800000D02*
X250400000Y-117800000D01*
X251000000Y-137350000D02*
X252400000Y-137350000D01*
X249600000Y-137350000D02*
X251000000Y-137350000D01*
X231550000Y-134600000D02*
X230800000Y-134600000D01*
X230800000Y-134600000D02*
X230600000Y-134800000D01*
X227150000Y-134200000D02*
X227150000Y-133000000D01*
X231550000Y-132600000D02*
X229300000Y-132600000D01*
X231550000Y-132100000D02*
X229800000Y-132100000D01*
X227700000Y-134200000D02*
X227150000Y-134200000D01*
X229800000Y-132100000D02*
X229300000Y-132600000D01*
X229300000Y-132600000D02*
X227700000Y-134200000D01*
X227150000Y-131800000D02*
X227150000Y-133000000D01*
X231550000Y-131600000D02*
X229500000Y-131600000D01*
X229300000Y-131800000D02*
X227150000Y-131800000D01*
X229500000Y-131600000D02*
X229300000Y-131800000D01*
X220600000Y-136900000D02*
X220600000Y-136200000D01*
X220000000Y-135600000D02*
X219400000Y-135600000D01*
X219400000Y-135600000D02*
X217350000Y-135600000D01*
X220600000Y-136200000D02*
X220000000Y-135600000D01*
X217350000Y-135600000D02*
X217350000Y-136200000D01*
X217350000Y-136200000D02*
X217350000Y-136800000D01*
X219900000Y-137600000D02*
X219200000Y-137600000D01*
X218400000Y-136800000D02*
X217350000Y-136800000D01*
X219200000Y-137600000D02*
X218400000Y-136800000D01*
X231550000Y-133100000D02*
X229700000Y-133100000D01*
X224600000Y-133600000D02*
X225650000Y-133600000D01*
X229700000Y-133100000D02*
X229400000Y-133400000D01*
X215950000Y-120400000D02*
X215000000Y-120400000D01*
X221100000Y-119400000D02*
X221100000Y-120500000D01*
X221100000Y-136900000D02*
X221100000Y-135800000D01*
X224600000Y-136600000D02*
X225650000Y-136600000D01*
X225650000Y-135400000D02*
X225650000Y-136600000D01*
D41*
X219000000Y-129800000D02*
X221300000Y-129800000D01*
D39*
X235000000Y-125150000D02*
X235000000Y-126300000D01*
X242950000Y-132600000D02*
X241800000Y-132600000D01*
X230600000Y-142550000D02*
X229400000Y-142550000D01*
X219800000Y-113700000D02*
X220600000Y-113700000D01*
X219800000Y-112200000D02*
X219800000Y-113700000D01*
X219800000Y-113700000D02*
X219800000Y-115200000D01*
X219800000Y-109200000D02*
X229200000Y-109200000D01*
X229200000Y-109200000D02*
X232200000Y-112200000D01*
X240600000Y-109200000D02*
X240600000Y-112200000D01*
X240600000Y-113700000D02*
X241400000Y-113700000D01*
X241000000Y-117050000D02*
X242150000Y-117050000D01*
X242150000Y-117050000D02*
X242200000Y-117000000D01*
X240600000Y-115200000D02*
X240600000Y-113700000D01*
X240600000Y-113700000D02*
X240600000Y-112200000D01*
X238000000Y-117050000D02*
X238000000Y-115900000D01*
X238600000Y-117050000D02*
X238000000Y-117050000D01*
X238000000Y-117050000D02*
X237400000Y-117050000D01*
X237400000Y-117050000D02*
X236200000Y-117050000D01*
X239800000Y-117050000D02*
X238600000Y-117050000D01*
X241000000Y-117050000D02*
X240400000Y-117050000D01*
X240400000Y-117050000D02*
X239800000Y-117050000D01*
X225650000Y-127600000D02*
X224600000Y-127600000D01*
X219800000Y-147200000D02*
X220500000Y-147200000D01*
X220700000Y-147000000D02*
X220700000Y-146300000D01*
X220500000Y-147200000D02*
X220700000Y-147000000D01*
X219800000Y-144200000D02*
X220900000Y-144200000D01*
X229400000Y-142550000D02*
X228950000Y-142550000D01*
X228950000Y-142550000D02*
X228200000Y-141800000D01*
X232200000Y-147200000D02*
X232200000Y-147400000D01*
X235600000Y-117050000D02*
X235600000Y-115900000D01*
X235000000Y-117050000D02*
X235600000Y-117050000D01*
X235600000Y-117050000D02*
X236200000Y-117050000D01*
X215950000Y-124200000D02*
X215000000Y-124200000D01*
X215950000Y-119200000D02*
X215950000Y-120400000D01*
X215950000Y-121600000D02*
X215950000Y-120400000D01*
D42*
X217350000Y-134400000D02*
X217350000Y-133450000D01*
X217350000Y-133450000D02*
X217300000Y-133400000D01*
D39*
X252150000Y-129470000D02*
X253970000Y-129470000D01*
X253970000Y-129470000D02*
X254000000Y-129500000D01*
X252150000Y-128200000D02*
X252150000Y-129470000D01*
X254600000Y-117050000D02*
X254600000Y-116000000D01*
X261400000Y-109200000D02*
X261400000Y-109800000D01*
X261400000Y-109800000D02*
X261900000Y-110300000D01*
X263980000Y-114600000D02*
X261400000Y-114600000D01*
X261400000Y-114600000D02*
X258820000Y-114600000D01*
X261400000Y-120600000D02*
X261400000Y-117600000D01*
X261400000Y-123600000D02*
X261400000Y-122600000D01*
X261400000Y-122600000D02*
X261400000Y-120600000D01*
X211000000Y-124200000D02*
X211000000Y-126950000D01*
X211000000Y-126950000D02*
X210900000Y-127050000D01*
X210900000Y-127050000D02*
X205400000Y-127050000D01*
X205400000Y-127050000D02*
X205400000Y-122600000D01*
X205400000Y-122600000D02*
X205400000Y-118150000D01*
X205400000Y-118150000D02*
X208100000Y-118150000D01*
X208100000Y-118150000D02*
X210900000Y-118150000D01*
X215850000Y-136800000D02*
X214800000Y-136800000D01*
X215850000Y-136800000D02*
X215850000Y-135600000D01*
X215850000Y-138000000D02*
X215850000Y-136800000D01*
X215850000Y-140600000D02*
X215850000Y-141450000D01*
X215850000Y-141450000D02*
X215800000Y-141500000D01*
X260850000Y-140650000D02*
X260850000Y-141850000D01*
X260850000Y-141850000D02*
X260900000Y-141900000D01*
X261400000Y-149300000D02*
X261400000Y-149100000D01*
X261400000Y-150200000D02*
X261400000Y-149300000D01*
X261400000Y-149300000D02*
X261400000Y-147200000D01*
X261400000Y-144200000D02*
X261400000Y-147200000D01*
X219800000Y-150200000D02*
X220800000Y-150200000D01*
X240600000Y-147200000D02*
X240600000Y-150200000D01*
X240400000Y-142550000D02*
X241450000Y-142550000D01*
X241450000Y-142550000D02*
X241500000Y-142600000D01*
X240600000Y-147200000D02*
X240600000Y-146100000D01*
X240600000Y-146100000D02*
X240600000Y-144200000D01*
X225650000Y-134200000D02*
X225650000Y-135400000D01*
X225650000Y-133000000D02*
X225650000Y-133600000D01*
X225650000Y-133600000D02*
X225650000Y-134200000D01*
X225650000Y-131800000D02*
X225650000Y-133000000D01*
X219700000Y-144200000D02*
X219650000Y-144150000D01*
X221100000Y-136900000D02*
X221100000Y-138100000D01*
X223800000Y-123700000D02*
X223100000Y-123700000D01*
D43*
X223100000Y-123700000D02*
X221850000Y-122450000D01*
X221600000Y-124400000D02*
X221600000Y-122700000D01*
X221100000Y-121700000D02*
X221850000Y-122450000D01*
X221100000Y-121700000D02*
X221100000Y-120500000D01*
X221600000Y-122700000D02*
X221850000Y-122450000D01*
D39*
X261300000Y-144200000D02*
X261250000Y-144150000D01*
X240500000Y-144200000D02*
X240450000Y-144150000D01*
X240500000Y-115200000D02*
X240450000Y-115250000D01*
X207500000Y-138775000D02*
X204575000Y-138775000D01*
X210500000Y-137450000D02*
X210500000Y-139450000D01*
X210250000Y-141200000D02*
X208750000Y-141200000D01*
X208750000Y-139450000D02*
X208750000Y-137450000D01*
X208750000Y-135700000D02*
X207000000Y-135700000D01*
X206750000Y-137450000D02*
X206750000Y-139450000D01*
X206750000Y-141200000D02*
X205000000Y-141200000D01*
X205000000Y-139450000D02*
X205000000Y-137450000D01*
X236950000Y-122200000D02*
X236950000Y-120650000D01*
X236200000Y-119900000D02*
X236200000Y-118550000D01*
X236950000Y-120650000D02*
X236200000Y-119900000D01*
X236000000Y-125150000D02*
X236000000Y-124300000D01*
X236950000Y-123350000D02*
X236950000Y-122200000D01*
X236000000Y-124300000D02*
X236950000Y-123350000D01*
X234450000Y-122200000D02*
X234450000Y-120650000D01*
X235000000Y-120100000D02*
X235000000Y-118550000D01*
X234450000Y-120650000D02*
X235000000Y-120100000D01*
X235500000Y-125150000D02*
X235500000Y-124300000D01*
X234450000Y-123250000D02*
X234450000Y-122200000D01*
X235500000Y-124300000D02*
X234450000Y-123250000D01*
X219900000Y-138100000D02*
X219200000Y-138100000D01*
X219100000Y-138000000D02*
X217250000Y-138000000D01*
X219200000Y-138100000D02*
X219100000Y-138000000D01*
X219900000Y-139100000D02*
X219200000Y-139100000D01*
X219100000Y-139200000D02*
X217250000Y-139200000D01*
X219200000Y-139100000D02*
X219100000Y-139200000D01*
X219900000Y-139600000D02*
X219200000Y-139600000D01*
X215850000Y-139750000D02*
X215850000Y-139200000D01*
X216000000Y-139900000D02*
X215850000Y-139750000D01*
X218900000Y-139900000D02*
X216000000Y-139900000D01*
X219200000Y-139600000D02*
X218900000Y-139900000D01*
X229400000Y-117050000D02*
X229400000Y-116400000D01*
X218200000Y-110000000D02*
X218200000Y-109200000D01*
X218500000Y-110300000D02*
X218200000Y-110000000D01*
X223300000Y-110300000D02*
X218500000Y-110300000D01*
X229400000Y-116400000D02*
X223300000Y-110300000D01*
X228000000Y-117050000D02*
X228000000Y-116400000D01*
X218200000Y-111400000D02*
X218200000Y-112200000D01*
X218500000Y-111100000D02*
X218200000Y-111400000D01*
X222700000Y-111100000D02*
X218500000Y-111100000D01*
X228000000Y-116400000D02*
X222700000Y-111100000D01*
X226600000Y-117050000D02*
X226600000Y-116400000D01*
X218200000Y-115900000D02*
X218200000Y-115200000D01*
X218500000Y-116200000D02*
X218200000Y-115900000D01*
X226400000Y-116200000D02*
X218500000Y-116200000D01*
X226600000Y-116400000D02*
X226400000Y-116200000D01*
X230800000Y-117050000D02*
X230800000Y-116400000D01*
X238400000Y-109200000D02*
X239000000Y-109200000D01*
X237700000Y-109900000D02*
X238400000Y-109200000D01*
X237700000Y-113700000D02*
X237700000Y-109900000D01*
X237000000Y-114400000D02*
X237700000Y-113700000D01*
X232800000Y-114400000D02*
X237000000Y-114400000D01*
X230800000Y-116400000D02*
X232800000Y-114400000D01*
X232200000Y-117050000D02*
X232200000Y-116400000D01*
X238400000Y-112200000D02*
X239000000Y-112200000D01*
X238200000Y-112400000D02*
X238400000Y-112200000D01*
X238200000Y-113700000D02*
X238200000Y-112400000D01*
X237100000Y-114800000D02*
X238200000Y-113700000D01*
X233800000Y-114800000D02*
X237100000Y-114800000D01*
X232200000Y-116400000D02*
X233800000Y-114800000D01*
X239000000Y-115200000D02*
X234800000Y-115200000D01*
X233600000Y-116400000D02*
X233600000Y-117050000D01*
X234800000Y-115200000D02*
X233600000Y-116400000D01*
X259800000Y-109200000D02*
X259100000Y-109200000D01*
X250400000Y-116500000D02*
X250400000Y-117050000D01*
X251400000Y-115500000D02*
X250400000Y-116500000D01*
X252800000Y-115500000D02*
X251400000Y-115500000D01*
X259100000Y-109200000D02*
X252800000Y-115500000D01*
X259800000Y-117600000D02*
X259100000Y-117600000D01*
X258550000Y-117050000D02*
X257400000Y-117050000D01*
X259100000Y-117600000D02*
X258550000Y-117050000D01*
X249000000Y-118550000D02*
X249000000Y-119100000D01*
X250500000Y-120600000D02*
X259800000Y-120600000D01*
X249000000Y-119100000D02*
X250500000Y-120600000D01*
X247600000Y-118550000D02*
X247600000Y-119100000D01*
X252100000Y-123600000D02*
X259800000Y-123600000D01*
X247600000Y-119100000D02*
X252100000Y-123600000D01*
X231700000Y-143400000D02*
X224500000Y-143400000D01*
X232000000Y-143100000D02*
X231700000Y-143400000D01*
X232000000Y-142550000D02*
X232000000Y-143100000D01*
X218200000Y-144900000D02*
X218200000Y-144200000D01*
X218500000Y-145200000D02*
X218200000Y-144900000D01*
X222700000Y-145200000D02*
X218500000Y-145200000D01*
X224500000Y-143400000D02*
X222700000Y-145200000D01*
X218200000Y-147200000D02*
X218200000Y-147800000D01*
X220400000Y-148000000D02*
X224600000Y-143800000D01*
X218400000Y-148000000D02*
X220400000Y-148000000D01*
X218200000Y-147800000D02*
X218400000Y-148000000D01*
X233400000Y-142550000D02*
X233400000Y-143100000D01*
X232700000Y-143800000D02*
X224600000Y-143800000D01*
X233400000Y-143100000D02*
X232700000Y-143800000D01*
X234800000Y-142550000D02*
X234800000Y-143100000D01*
X218200000Y-149600000D02*
X218200000Y-150200000D01*
X218400000Y-149400000D02*
X218200000Y-149600000D01*
X219500000Y-149400000D02*
X218400000Y-149400000D01*
X224700000Y-144200000D02*
X219500000Y-149400000D01*
X233700000Y-144200000D02*
X224700000Y-144200000D01*
X234800000Y-143100000D02*
X233700000Y-144200000D01*
X239000000Y-142550000D02*
X239000000Y-144200000D01*
X239000000Y-147200000D02*
X238431056Y-147200000D01*
X237600000Y-146368944D02*
X237600000Y-142550000D01*
X238431056Y-147200000D02*
X237600000Y-146368944D01*
X236200000Y-142550000D02*
X236200000Y-145400000D01*
X238300000Y-150200000D02*
X239000000Y-150200000D01*
X237400000Y-149300000D02*
X238300000Y-150200000D01*
X237400000Y-146600000D02*
X237400000Y-149300000D01*
X236200000Y-145400000D02*
X237400000Y-146600000D01*
X259800000Y-144200000D02*
X253400000Y-144200000D01*
X253400000Y-144200000D02*
X252400000Y-143200000D01*
X252400000Y-143200000D02*
X252400000Y-142550000D01*
X251000000Y-142550000D02*
X251000000Y-143200000D01*
X259100000Y-147200000D02*
X258700000Y-146800000D01*
X258700000Y-146800000D02*
X258700000Y-146300000D01*
X258700000Y-146300000D02*
X257000000Y-144600000D01*
X259100000Y-147200000D02*
X259800000Y-147200000D01*
X252400000Y-144600000D02*
X257000000Y-144600000D01*
X251000000Y-143200000D02*
X252400000Y-144600000D01*
X259800000Y-150200000D02*
X259100000Y-150200000D01*
X249600000Y-143200000D02*
X249600000Y-142550000D01*
X251400000Y-145000000D02*
X249600000Y-143200000D01*
X256800000Y-145000000D02*
X251400000Y-145000000D01*
X258300000Y-146500000D02*
X256800000Y-145000000D01*
X258300000Y-149400000D02*
X258300000Y-146500000D01*
X259100000Y-150200000D02*
X258300000Y-149400000D01*
X225650000Y-126200000D02*
X221650000Y-126150000D01*
X212600000Y-121000000D02*
X213600000Y-122000000D01*
X213600000Y-122000000D02*
X213600000Y-124200000D01*
X213600000Y-124200000D02*
X215100184Y-125722313D01*
X215100184Y-125722313D02*
X221150184Y-125672313D01*
X212600000Y-121000000D02*
X211000000Y-121000000D01*
X221650000Y-126150000D02*
X221150184Y-125672313D01*
X220600000Y-126700000D02*
X215200000Y-126700000D01*
X224300000Y-130400000D02*
X220600000Y-126700000D01*
X225650000Y-130400000D02*
X224300000Y-130400000D01*
X213200000Y-124700000D02*
X213200000Y-122400000D01*
X213200000Y-122400000D02*
X212600000Y-121800000D01*
X212600000Y-121800000D02*
X211000000Y-121800000D01*
X213800000Y-125300000D02*
X213200000Y-124700000D01*
X225650000Y-129000000D02*
X223850000Y-128950000D01*
X212800000Y-122800000D02*
X212800000Y-125200000D01*
X212600000Y-122600000D02*
X212800000Y-122800000D01*
X212600000Y-122600000D02*
X211000000Y-122600000D01*
X212800000Y-125200000D02*
X213700195Y-126128275D01*
X213700195Y-126128275D02*
X220950195Y-126078275D01*
X223850000Y-128950000D02*
X220950195Y-126078275D01*
X220600000Y-140825000D02*
X220600000Y-142400000D01*
X220200000Y-142800000D02*
X217600000Y-142800000D01*
X217600000Y-142800000D02*
X214900000Y-145500000D01*
X214900000Y-145500000D02*
X214900000Y-147200000D01*
X220600000Y-142400000D02*
X220200000Y-142800000D01*
X207900000Y-147200000D02*
X212900000Y-142200000D01*
X222100000Y-142000000D02*
X222300000Y-142200000D01*
X222100000Y-142000000D02*
X222100000Y-140800000D01*
X212900000Y-142200000D02*
X219900000Y-142200000D01*
X221100000Y-140800000D02*
X221100000Y-142400000D01*
X222200000Y-143500000D02*
X223400000Y-143500000D01*
X221100000Y-142400000D02*
X222200000Y-143500000D01*
X225000000Y-144800000D02*
X233300000Y-144800000D01*
X233300000Y-144800000D02*
X235700000Y-147200000D01*
X235700000Y-146800000D02*
X235700000Y-147200000D01*
X223500000Y-142200000D02*
X222600000Y-141300000D01*
X222600000Y-141300000D02*
X222600000Y-140800000D01*
X256500000Y-147200000D02*
X254700000Y-145400000D01*
X221600000Y-142400000D02*
X222000000Y-142800000D01*
X222000000Y-142800000D02*
X228200000Y-142800000D01*
X221600000Y-142400000D02*
X221600000Y-140800000D01*
X242900000Y-145400000D02*
X241700000Y-144200000D01*
X254700000Y-145400000D02*
X242900000Y-145400000D01*
X233300000Y-151100000D02*
X245600000Y-151100000D01*
X223100000Y-141300000D02*
X223400000Y-141600000D01*
X223400000Y-141600000D02*
X223900000Y-141600000D01*
X223900000Y-141600000D02*
X224500000Y-142200000D01*
X230600000Y-145500000D02*
X230600000Y-148400000D01*
X230600000Y-148400000D02*
X233300000Y-151100000D01*
X223100000Y-140825000D02*
X223100000Y-141300000D01*
X245600000Y-151100000D02*
X249500000Y-147200000D01*
X207900000Y-112200000D02*
X214100000Y-118400000D01*
X221100000Y-125100000D02*
X220900000Y-125300000D01*
X220900000Y-125300000D02*
X215200000Y-125300000D01*
X215200000Y-125300000D02*
X214100000Y-124200000D01*
X214100000Y-124200000D02*
X214100000Y-118400000D01*
X221100000Y-125100000D02*
X221100000Y-124400000D01*
X214900000Y-114500000D02*
X218100000Y-117700000D01*
X214900000Y-112200000D02*
X214900000Y-114500000D01*
X222100000Y-125500000D02*
X222100000Y-124400000D01*
X220600000Y-124425000D02*
X219875000Y-124425000D01*
X219875000Y-124425000D02*
X219700000Y-124600000D01*
X222600000Y-124400000D02*
X222600000Y-125100000D01*
X230100000Y-115900000D02*
X232000000Y-114000000D01*
X232000000Y-114000000D02*
X233900000Y-114000000D01*
X233900000Y-114000000D02*
X235700000Y-112200000D01*
X225500000Y-125300000D02*
X226900000Y-123900000D01*
X222800000Y-125300000D02*
X225500000Y-125300000D01*
X222600000Y-125100000D02*
X222800000Y-125300000D01*
X238000000Y-136550000D02*
X238000000Y-135400000D01*
X225800000Y-140100000D02*
X225900000Y-140200000D01*
X225700000Y-140100000D02*
X223825000Y-140100000D01*
X238500000Y-136550000D02*
X238500000Y-138300000D01*
X238500000Y-138300000D02*
X238300000Y-138500000D01*
X228000000Y-138600000D02*
X228100000Y-138700000D01*
X228000000Y-138600000D02*
X223800000Y-138600000D01*
X249600000Y-135850000D02*
X249600000Y-133200000D01*
X249600000Y-133200000D02*
X248200000Y-131800000D01*
X242950000Y-132100000D02*
X244300000Y-132100000D01*
X248250000Y-131750000D02*
X248250000Y-130740000D01*
X248200000Y-131800000D02*
X248250000Y-131750000D01*
X244600000Y-132400000D02*
X245500000Y-132400000D01*
X244300000Y-132100000D02*
X244600000Y-132400000D01*
X242950000Y-134100000D02*
X244400000Y-134100000D01*
X250000000Y-128200000D02*
X248250000Y-128200000D01*
X248250000Y-126930000D02*
X250030000Y-126930000D01*
X252400000Y-135300000D02*
X252400000Y-135850000D01*
X250600000Y-133500000D02*
X252400000Y-135300000D01*
X250600000Y-127500000D02*
X250600000Y-133500000D01*
X250030000Y-126930000D02*
X250600000Y-127500000D01*
X242950000Y-128100000D02*
X245100000Y-128100000D01*
X246270000Y-126930000D02*
X248250000Y-126930000D01*
X245100000Y-128100000D02*
X246270000Y-126930000D01*
X244300000Y-126100000D02*
X240700000Y-126100000D01*
X240500000Y-125150000D02*
X240500000Y-125900000D01*
X246740000Y-125660000D02*
X246300000Y-126100000D01*
X246740000Y-125660000D02*
X248250000Y-125660000D01*
X240700000Y-126100000D02*
X240500000Y-125900000D01*
X251800000Y-117050000D02*
X251800000Y-116100000D01*
X249740000Y-125660000D02*
X248250000Y-125660000D01*
X251200000Y-124200000D02*
X249740000Y-125660000D01*
X251800000Y-124200000D02*
X251200000Y-124200000D01*
X240000000Y-125150000D02*
X240000000Y-124300000D01*
X241900000Y-122400000D02*
X243400000Y-122400000D01*
X240000000Y-124300000D02*
X241900000Y-122400000D01*
X249600000Y-141050000D02*
X249600000Y-140500000D01*
X245100000Y-130600000D02*
X242950000Y-130600000D01*
X247800000Y-133300000D02*
X245100000Y-130600000D01*
X247800000Y-138700000D02*
X247800000Y-133300000D01*
X249600000Y-140500000D02*
X247800000Y-138700000D01*
X252400000Y-141050000D02*
X252400000Y-140500000D01*
X245100000Y-129600000D02*
X242950000Y-129600000D01*
X248600000Y-133100000D02*
X245100000Y-129600000D01*
X248600000Y-137600000D02*
X248600000Y-133100000D01*
X249000000Y-138000000D02*
X248600000Y-137600000D01*
X249900000Y-138000000D02*
X249000000Y-138000000D01*
X252400000Y-140500000D02*
X249900000Y-138000000D01*
X242950000Y-130100000D02*
X245100000Y-130100000D01*
X251000000Y-140500000D02*
X251000000Y-141050000D01*
X248200000Y-137700000D02*
X251000000Y-140500000D01*
X248200000Y-133200000D02*
X248200000Y-137700000D01*
X245100000Y-130100000D02*
X248200000Y-133200000D01*
X235000000Y-136550000D02*
X235000000Y-139400000D01*
X236200000Y-140600000D02*
X236200000Y-141050000D01*
X235000000Y-139400000D02*
X236200000Y-140600000D01*
X239000000Y-136550000D02*
X239000000Y-141050000D01*
X237500000Y-136550000D02*
X237500000Y-137350000D01*
X237600000Y-138150000D02*
X237600000Y-141050000D01*
X237700000Y-138050000D02*
X237600000Y-138150000D01*
X237700000Y-137550000D02*
X237700000Y-138050000D01*
X237500000Y-137350000D02*
X237700000Y-137550000D01*
X234500000Y-136550000D02*
X234500000Y-139400000D01*
X234800000Y-139700000D02*
X234800000Y-141050000D01*
X234500000Y-139400000D02*
X234800000Y-139700000D01*
X233500000Y-136550000D02*
X233500000Y-139000000D01*
X232000000Y-140500000D02*
X232000000Y-141050000D01*
X233500000Y-139000000D02*
X232000000Y-140500000D01*
X234000000Y-136550000D02*
X234000000Y-139000000D01*
X233400000Y-139600000D02*
X233400000Y-141050000D01*
X234000000Y-139000000D02*
X233400000Y-139600000D01*
X231550000Y-128600000D02*
X230800000Y-128600000D01*
X226600000Y-119300000D02*
X226600000Y-118550000D01*
X227800000Y-120500000D02*
X226600000Y-119300000D01*
X227800000Y-125600000D02*
X227800000Y-123900000D01*
X230800000Y-128600000D02*
X227800000Y-125600000D01*
X229400000Y-118550000D02*
X229400000Y-121200000D01*
X230800000Y-127600000D02*
X231550000Y-127600000D01*
X229400000Y-126200000D02*
X230800000Y-127600000D01*
X229400000Y-124700000D02*
X229400000Y-126200000D01*
X231550000Y-128100000D02*
X230800000Y-128100000D01*
X228000000Y-119800000D02*
X228000000Y-118550000D01*
X228700000Y-120500000D02*
X228000000Y-119800000D01*
X228700000Y-126000000D02*
X228700000Y-123900000D01*
X230800000Y-128100000D02*
X228700000Y-126000000D01*
X234500000Y-125150000D02*
X234500000Y-124300000D01*
X233600000Y-120800000D02*
X233600000Y-118550000D01*
X233600000Y-121200000D02*
X233600000Y-120800000D01*
X233600000Y-123400000D02*
X233600000Y-121200000D01*
X234500000Y-124300000D02*
X233600000Y-123400000D01*
X233500000Y-125150000D02*
X233500000Y-124300000D01*
X230800000Y-121600000D02*
X230800000Y-118550000D01*
X233500000Y-124300000D02*
X230800000Y-121600000D01*
X234000000Y-125150000D02*
X234000000Y-124300000D01*
X232200000Y-122500000D02*
X232200000Y-118550000D01*
X234000000Y-124300000D02*
X232200000Y-122500000D01*
X242950000Y-128600000D02*
X245700000Y-128600000D01*
X247600000Y-116100000D02*
X247600000Y-117050000D01*
X245700000Y-128600000D02*
X245900000Y-128400000D01*
X242950000Y-129100000D02*
X245700000Y-129100000D01*
X249000000Y-116100000D02*
X249000000Y-117050000D01*
X245700000Y-129100000D02*
X245900000Y-129300000D01*
X231550000Y-130600000D02*
X230800000Y-130600000D01*
X229200000Y-129000000D02*
X227150000Y-129000000D01*
X230800000Y-130600000D02*
X229200000Y-129000000D01*
X231550000Y-131100000D02*
X230800000Y-131100000D01*
X230100000Y-130400000D02*
X227150000Y-130400000D01*
X230800000Y-131100000D02*
X230100000Y-130400000D01*
X231550000Y-129600000D02*
X230800000Y-129600000D01*
X228800000Y-127600000D02*
X227150000Y-127600000D01*
X230800000Y-129600000D02*
X228800000Y-127600000D01*
X227150000Y-126200000D02*
X227150000Y-127600000D01*
X231550000Y-127100000D02*
X230800000Y-127100000D01*
X228900000Y-123200000D02*
X223800000Y-123200000D01*
X230000000Y-124300000D02*
X228900000Y-123200000D01*
X230000000Y-126300000D02*
X230000000Y-124300000D01*
X230800000Y-127100000D02*
X230000000Y-126300000D01*
X237000000Y-136550000D02*
X237000000Y-137700000D01*
X226600000Y-139600000D02*
X226700000Y-139700000D01*
X226500000Y-139600000D02*
X223800000Y-139600000D01*
X237000000Y-137700000D02*
X237100000Y-137800000D01*
X242950000Y-136550000D02*
X244400000Y-135100000D01*
X244400000Y-135100000D02*
X245500000Y-135100000D01*
X245500000Y-135100000D02*
X245700000Y-134900000D01*
X241000000Y-136550000D02*
X242950000Y-136550000D01*
X262400000Y-129300000D02*
X262350000Y-127150000D01*
X260000000Y-131700000D02*
X262400000Y-129300000D01*
X255500000Y-131700000D02*
X260000000Y-131700000D01*
X234200000Y-127000000D02*
X236900000Y-127000000D01*
X228400000Y-121200000D02*
X234200000Y-127000000D01*
X223825000Y-121200000D02*
X228400000Y-121200000D01*
X237500000Y-126400000D02*
X237500000Y-125150000D01*
X236900000Y-127000000D02*
X237500000Y-126400000D01*
X236500000Y-136550000D02*
X236500000Y-138400000D01*
X228700000Y-138100000D02*
X223800000Y-138100000D01*
X228800000Y-138200000D02*
X228700000Y-138100000D01*
X265350000Y-127150000D02*
X265350000Y-127750000D01*
X244700000Y-134700000D02*
X245300000Y-134100000D01*
X244000000Y-134600000D02*
X244100000Y-134700000D01*
X253200000Y-133100000D02*
X260000000Y-133100000D01*
X244000000Y-134600000D02*
X242950000Y-134600000D01*
X244100000Y-134700000D02*
X244700000Y-134700000D01*
X265350000Y-127750000D02*
X260000000Y-133100000D01*
X240000000Y-136550000D02*
X240000000Y-137800000D01*
X241060000Y-138860000D02*
X245200000Y-138860000D01*
X240000000Y-137800000D02*
X241060000Y-138860000D01*
X234000000Y-127800000D02*
X237700000Y-127800000D01*
X223800000Y-122700000D02*
X228900000Y-122700000D01*
X228900000Y-122700000D02*
X234000000Y-127800000D01*
X239000000Y-126500000D02*
X239000000Y-125150000D01*
X237700000Y-127800000D02*
X239000000Y-126500000D01*
X240500000Y-136550000D02*
X240500000Y-137300000D01*
X243920000Y-137600000D02*
X245200000Y-136320000D01*
X240800000Y-137600000D02*
X243920000Y-137600000D01*
X240500000Y-137300000D02*
X240800000Y-137600000D01*
X234100000Y-127400000D02*
X237200000Y-127400000D01*
X223800000Y-121700000D02*
X228400000Y-121700000D01*
X228400000Y-121700000D02*
X234100000Y-127400000D01*
X239500000Y-126100000D02*
X239500000Y-125150000D01*
X239700000Y-126300000D02*
X239500000Y-126100000D01*
X237200000Y-127400000D02*
X238300000Y-126300000D01*
X259350000Y-140650000D02*
X259350000Y-141450000D01*
X244000000Y-133600000D02*
X244100000Y-133500000D01*
X244100000Y-133500000D02*
X245700000Y-133500000D01*
X245700000Y-133500000D02*
X246300000Y-134100000D01*
X246300000Y-134100000D02*
X246300000Y-135500000D01*
X246300000Y-135500000D02*
X246700000Y-135900000D01*
X244000000Y-133600000D02*
X242950000Y-133600000D01*
X246700000Y-139600000D02*
X246700000Y-135900000D01*
X248900000Y-141800000D02*
X246700000Y-139600000D01*
X259000000Y-141800000D02*
X248900000Y-141800000D01*
X259350000Y-141450000D02*
X259000000Y-141800000D01*
X235500000Y-136550000D02*
X235500000Y-135400000D01*
X226100000Y-137600000D02*
X223825000Y-137600000D01*
X226200000Y-137500000D02*
X226100000Y-137600000D01*
X227400000Y-139100000D02*
X227500000Y-139200000D01*
X223800000Y-139100000D02*
X227300000Y-139100000D01*
X236000000Y-137600000D02*
X235800000Y-137800000D01*
X236000000Y-137600000D02*
X236000000Y-136550000D01*
X242950000Y-133100000D02*
X246200000Y-133100000D01*
X263850000Y-128550000D02*
X263850000Y-127150000D01*
X260000000Y-132400000D02*
X263850000Y-128550000D01*
X253900000Y-132400000D02*
X260000000Y-132400000D01*
X239500000Y-136550000D02*
X239500000Y-134700000D01*
X239500000Y-134700000D02*
X238400000Y-133600000D01*
X231550000Y-133600000D02*
X238400000Y-133600000D01*
X237000000Y-126000000D02*
X236700000Y-126300000D01*
X237000000Y-126000000D02*
X237000000Y-125150000D01*
X238400000Y-128000000D02*
X238400000Y-133600000D01*
X237000000Y-125150000D02*
X237000000Y-124100000D01*
X237000000Y-124100000D02*
X237800000Y-123300000D01*
X237800000Y-123300000D02*
X237800000Y-121100000D01*
X237800000Y-121100000D02*
X237400000Y-120700000D01*
X237400000Y-120700000D02*
X237400000Y-118550000D01*
X239500000Y-136550000D02*
X239500000Y-139500000D01*
X240400000Y-140400000D02*
X240400000Y-141050000D01*
X239500000Y-139500000D02*
X240400000Y-140400000D01*
X227150000Y-136600000D02*
X227150000Y-135400000D01*
X231550000Y-133600000D02*
X230100000Y-133600000D01*
X228300000Y-135400000D02*
X227150000Y-135400000D01*
X230100000Y-133600000D02*
X228300000Y-135400000D01*
X257400000Y-118550000D02*
X257400000Y-119900000D01*
X265350000Y-130050000D02*
X265300000Y-130000000D01*
X265350000Y-130050000D02*
X265350000Y-140650000D01*
X219900000Y-121700000D02*
X219200000Y-121700000D01*
X219100000Y-121600000D02*
X217450000Y-121600000D01*
X219200000Y-121700000D02*
X219100000Y-121600000D01*
X219900000Y-122700000D02*
X219200000Y-122700000D01*
X219100000Y-122800000D02*
X217450000Y-122800000D01*
X219200000Y-122700000D02*
X219100000Y-122800000D01*
X219900000Y-123200000D02*
X219200000Y-123200000D01*
X215950000Y-123350000D02*
X215950000Y-122800000D01*
X216100000Y-123500000D02*
X215950000Y-123350000D01*
X218900000Y-123500000D02*
X216100000Y-123500000D01*
X219200000Y-123200000D02*
X218900000Y-123500000D01*
X219900000Y-123700000D02*
X219200000Y-123700000D01*
X218700000Y-124200000D02*
X217450000Y-124200000D01*
X219200000Y-123700000D02*
X218700000Y-124200000D01*
X220250000Y-118500000D02*
X218800000Y-118500000D01*
X218800000Y-122200000D02*
X219900000Y-122200000D01*
X221600000Y-120500000D02*
X221600000Y-119800000D01*
X221750000Y-119650000D02*
X221750000Y-118500000D01*
X221600000Y-119800000D02*
X221750000Y-119650000D01*
X253200000Y-118550000D02*
X251800000Y-118550000D01*
X254600000Y-118550000D02*
X253200000Y-118550000D01*
X256000000Y-118550000D02*
X254600000Y-118550000D01*
D41*
X215850000Y-134400000D02*
X215000000Y-134400000D01*
X215000000Y-134400000D02*
X213600000Y-133000000D01*
X211725000Y-131125000D02*
X210050000Y-131125000D01*
X212600000Y-132000000D02*
X211725000Y-131125000D01*
X213600000Y-133000000D02*
X212600000Y-132000000D01*
D39*
X219900000Y-140100000D02*
X219200000Y-140100000D01*
X218700000Y-140600000D02*
X217250000Y-140600000D01*
X219200000Y-140100000D02*
X218700000Y-140600000D01*
X220250000Y-134800000D02*
X218800000Y-134800000D01*
X218800000Y-138600000D02*
X219900000Y-138600000D01*
X221600000Y-136900000D02*
X221600000Y-136200000D01*
X221750000Y-136050000D02*
X221750000Y-134800000D01*
X221600000Y-136200000D02*
X221750000Y-136050000D01*
X258820000Y-112600000D02*
X257800000Y-112600000D01*
X256000000Y-114400000D02*
X256000000Y-117050000D01*
X257800000Y-112600000D02*
X256000000Y-114400000D01*
X263980000Y-112600000D02*
X258820000Y-112600000D01*
X242950000Y-131100000D02*
X244700000Y-131100000D01*
X266850000Y-126450000D02*
X266850000Y-127150000D01*
X266000000Y-125600000D02*
X266850000Y-126450000D01*
X254100000Y-125600000D02*
X266000000Y-125600000D01*
X244700000Y-131100000D02*
X244800000Y-131200000D01*
X250200000Y-129800000D02*
X250200000Y-134200000D01*
X249870000Y-129470000D02*
X250200000Y-129800000D01*
X248250000Y-129470000D02*
X249870000Y-129470000D01*
X250200000Y-134200000D02*
X250700000Y-134700000D01*
X244300000Y-131600000D02*
X244500000Y-131800000D01*
X244500000Y-131800000D02*
X245800000Y-131800000D01*
X245800000Y-131800000D02*
X247200000Y-133200000D01*
X247200000Y-133200000D02*
X247200000Y-134700000D01*
X242950000Y-131600000D02*
X244300000Y-131600000D01*
X251000000Y-135000000D02*
X251000000Y-135850000D01*
X250700000Y-134700000D02*
X251000000Y-135000000D01*
M02*
