G04 #@! TF.FileFunction,Soldermask,Top*
%FSLAX46Y46*%
G04 Gerber Fmt 4.6, Leading zero omitted, Abs format (unit mm)*
G04 Created by KiCad (PCBNEW 4.0.6) date 2017 July 16, Sunday 00:23:12*
%MOMM*%
%LPD*%
G01*
G04 APERTURE LIST*
%ADD10C,0.100000*%
%ADD11R,1.300000X0.900000*%
%ADD12R,0.650000X1.400000*%
%ADD13R,1.400000X0.650000*%
%ADD14R,1.200000X1.150000*%
%ADD15R,1.750000X1.750000*%
%ADD16O,1.750000X1.750000*%
%ADD17R,2.100000X2.100000*%
%ADD18O,2.100000X2.100000*%
%ADD19R,1.200000X1.200000*%
%ADD20R,1.400000X2.200000*%
%ADD21R,1.300000X1.400000*%
%ADD22R,2.400000X3.900000*%
%ADD23R,7.400000X7.400000*%
%ADD24R,1.850000X1.100000*%
%ADD25R,0.900000X1.300000*%
%ADD26R,2.800000X1.150000*%
%ADD27C,2.800000*%
%ADD28R,2.800000X2.800000*%
%ADD29R,1.150000X1.200000*%
%ADD30R,3.000000X2.000000*%
%ADD31R,0.700000X1.225000*%
%ADD32R,0.700000X1.250000*%
%ADD33R,1.225000X0.700000*%
%ADD34R,1.250000X0.700000*%
%ADD35R,3.000000X3.000000*%
%ADD36R,2.400000X0.900000*%
%ADD37R,2.900000X2.600000*%
%ADD38C,1.300000*%
G04 APERTURE END LIST*
D10*
D11*
X251000000Y-137350000D03*
X251000000Y-135850000D03*
D12*
X241000000Y-125150000D03*
X240500000Y-125150000D03*
X240000000Y-125150000D03*
X239500000Y-125150000D03*
X239000000Y-125150000D03*
X238500000Y-125150000D03*
X238000000Y-125150000D03*
X237500000Y-125150000D03*
X237000000Y-125150000D03*
X236500000Y-125150000D03*
X236000000Y-125150000D03*
X235500000Y-125150000D03*
X235000000Y-125150000D03*
X234500000Y-125150000D03*
X234000000Y-125150000D03*
X233500000Y-125150000D03*
D13*
X231550000Y-127100000D03*
X231550000Y-127600000D03*
X231550000Y-128100000D03*
X231550000Y-128600000D03*
X231550000Y-129100000D03*
X231550000Y-129600000D03*
X231550000Y-130100000D03*
X231550000Y-130600000D03*
X231550000Y-131100000D03*
X231550000Y-131600000D03*
X231550000Y-132100000D03*
X231550000Y-132600000D03*
X231550000Y-133100000D03*
X231550000Y-133600000D03*
X231550000Y-134100000D03*
X231550000Y-134600000D03*
D12*
X233500000Y-136550000D03*
X234000000Y-136550000D03*
X234500000Y-136550000D03*
X235000000Y-136550000D03*
X235500000Y-136550000D03*
X236000000Y-136550000D03*
X236500000Y-136550000D03*
X237000000Y-136550000D03*
X237500000Y-136550000D03*
X238000000Y-136550000D03*
X238500000Y-136550000D03*
X239000000Y-136550000D03*
X239500000Y-136550000D03*
X240000000Y-136550000D03*
X240500000Y-136550000D03*
X241000000Y-136550000D03*
D13*
X242950000Y-134600000D03*
X242950000Y-134100000D03*
X242950000Y-133600000D03*
X242950000Y-133100000D03*
X242950000Y-132600000D03*
X242950000Y-132100000D03*
X242950000Y-131600000D03*
X242950000Y-131100000D03*
X242950000Y-130600000D03*
X242950000Y-130100000D03*
X242950000Y-129600000D03*
X242950000Y-129100000D03*
X242950000Y-128600000D03*
X242950000Y-128100000D03*
X242950000Y-127600000D03*
X242950000Y-127100000D03*
D14*
X227150000Y-133000000D03*
X225650000Y-133000000D03*
D15*
X245400000Y-122400000D03*
D16*
X243400000Y-122400000D03*
D17*
X245200000Y-141400000D03*
D18*
X245200000Y-138860000D03*
X245200000Y-136320000D03*
D19*
X239000000Y-147200000D03*
X240600000Y-147200000D03*
X239000000Y-144200000D03*
X240600000Y-144200000D03*
X239000000Y-150200000D03*
X240600000Y-150200000D03*
D14*
X215950000Y-121600000D03*
X217450000Y-121600000D03*
X215850000Y-140600000D03*
X217350000Y-140600000D03*
X215850000Y-138000000D03*
X217350000Y-138000000D03*
X217450000Y-122800000D03*
X215950000Y-122800000D03*
X217350000Y-139200000D03*
X215850000Y-139200000D03*
X215950000Y-124200000D03*
X217450000Y-124200000D03*
X220250000Y-118500000D03*
X221750000Y-118500000D03*
X220250000Y-134800000D03*
X221750000Y-134800000D03*
X217450000Y-120400000D03*
X215950000Y-120400000D03*
X217350000Y-136800000D03*
X215850000Y-136800000D03*
X217450000Y-119200000D03*
X215950000Y-119200000D03*
X217350000Y-135600000D03*
X215850000Y-135600000D03*
D20*
X236950000Y-122200000D03*
X234450000Y-122200000D03*
D21*
X256350000Y-127150000D03*
X256350000Y-140650000D03*
X257850000Y-140650000D03*
X259350000Y-140650000D03*
X260850000Y-140650000D03*
X262350000Y-140650000D03*
X263850000Y-140650000D03*
X265350000Y-140650000D03*
X266850000Y-140650000D03*
X266850000Y-127150000D03*
X265350000Y-127150000D03*
X263850000Y-127150000D03*
X262350000Y-127150000D03*
X260850000Y-127150000D03*
X259350000Y-127150000D03*
X257850000Y-127150000D03*
D22*
X210050000Y-131125000D03*
X205470000Y-131125000D03*
D23*
X207750000Y-138525000D03*
D24*
X258820000Y-114600000D03*
X263980000Y-114600000D03*
X263980000Y-112600000D03*
X258820000Y-112600000D03*
D11*
X251800000Y-117050000D03*
X251800000Y-118550000D03*
X253200000Y-117050000D03*
X253200000Y-118550000D03*
X256000000Y-118550000D03*
X256000000Y-117050000D03*
X249600000Y-137350000D03*
X249600000Y-135850000D03*
X252400000Y-137350000D03*
X252400000Y-135850000D03*
D25*
X227150000Y-127600000D03*
X225650000Y-127600000D03*
X227150000Y-130400000D03*
X225650000Y-130400000D03*
X227150000Y-129000000D03*
X225650000Y-129000000D03*
D11*
X250400000Y-118550000D03*
X250400000Y-117050000D03*
X257400000Y-118550000D03*
X257400000Y-117050000D03*
X249000000Y-117050000D03*
X249000000Y-118550000D03*
X247600000Y-117050000D03*
X247600000Y-118550000D03*
X230800000Y-118550000D03*
X230800000Y-117050000D03*
X232200000Y-118550000D03*
X232200000Y-117050000D03*
X233600000Y-118550000D03*
X233600000Y-117050000D03*
X226600000Y-118550000D03*
X226600000Y-117050000D03*
X228000000Y-118550000D03*
X228000000Y-117050000D03*
X229400000Y-118550000D03*
X229400000Y-117050000D03*
X232000000Y-141050000D03*
X232000000Y-142550000D03*
X233400000Y-141050000D03*
X233400000Y-142550000D03*
X234800000Y-141050000D03*
X234800000Y-142550000D03*
X236200000Y-141050000D03*
X236200000Y-142550000D03*
X237600000Y-141050000D03*
X237600000Y-142550000D03*
X239000000Y-141050000D03*
X239000000Y-142550000D03*
X249600000Y-141050000D03*
X249600000Y-142550000D03*
X251000000Y-141050000D03*
X251000000Y-142550000D03*
X252400000Y-141050000D03*
X252400000Y-142550000D03*
D26*
X252150000Y-130740000D03*
X248250000Y-130740000D03*
X252150000Y-129470000D03*
X248250000Y-129470000D03*
X252150000Y-128200000D03*
X248250000Y-128200000D03*
X252150000Y-126930000D03*
X248250000Y-126930000D03*
X252150000Y-125660000D03*
X248250000Y-125660000D03*
D27*
X249500000Y-112200000D03*
D28*
X253000000Y-112200000D03*
D27*
X232200000Y-112200000D03*
X228700000Y-112200000D03*
D28*
X235700000Y-112200000D03*
D27*
X211400000Y-112200000D03*
X207900000Y-112200000D03*
D28*
X214900000Y-112200000D03*
D27*
X232200000Y-147200000D03*
X235700000Y-147200000D03*
D28*
X228700000Y-147200000D03*
D19*
X259800000Y-109200000D03*
X261400000Y-109200000D03*
X259800000Y-117600000D03*
X261400000Y-117600000D03*
X259800000Y-120600000D03*
X261400000Y-120600000D03*
X259800000Y-123600000D03*
X261400000Y-123600000D03*
X239000000Y-112200000D03*
X240600000Y-112200000D03*
X239000000Y-109200000D03*
X240600000Y-109200000D03*
X239000000Y-115200000D03*
X240600000Y-115200000D03*
X218200000Y-112200000D03*
X219800000Y-112200000D03*
X218200000Y-109200000D03*
X219800000Y-109200000D03*
X218200000Y-115200000D03*
X219800000Y-115200000D03*
X218200000Y-147200000D03*
X219800000Y-147200000D03*
X218200000Y-144200000D03*
X219800000Y-144200000D03*
X218200000Y-150200000D03*
X219800000Y-150200000D03*
X259800000Y-147200000D03*
X261400000Y-147200000D03*
X259800000Y-144200000D03*
X261400000Y-144200000D03*
X259800000Y-150200000D03*
X261400000Y-150200000D03*
D29*
X254600000Y-118550000D03*
X254600000Y-117050000D03*
D30*
X215400000Y-129800000D03*
X219000000Y-129800000D03*
D29*
X235000000Y-118550000D03*
X235000000Y-117050000D03*
D14*
X215850000Y-134400000D03*
X217350000Y-134400000D03*
D29*
X236200000Y-118550000D03*
X236200000Y-117050000D03*
D14*
X227150000Y-134200000D03*
X225650000Y-134200000D03*
X227150000Y-136600000D03*
X225650000Y-136600000D03*
X227150000Y-135400000D03*
X225650000Y-135400000D03*
D29*
X237400000Y-118550000D03*
X237400000Y-117050000D03*
X240400000Y-141050000D03*
X240400000Y-142550000D03*
D14*
X227150000Y-131800000D03*
X225650000Y-131800000D03*
D29*
X230600000Y-141050000D03*
X230600000Y-142550000D03*
X229400000Y-141050000D03*
X229400000Y-142550000D03*
X238600000Y-118550000D03*
X238600000Y-117050000D03*
X239800000Y-118550000D03*
X239800000Y-117050000D03*
X241000000Y-118550000D03*
X241000000Y-117050000D03*
D27*
X211400000Y-147200000D03*
X214900000Y-147200000D03*
D28*
X207900000Y-147200000D03*
D25*
X225650000Y-126200000D03*
X227150000Y-126200000D03*
D27*
X253000000Y-147200000D03*
X256500000Y-147200000D03*
D28*
X249500000Y-147200000D03*
D31*
X220600000Y-140825000D03*
D32*
X221100000Y-140800000D03*
X221600000Y-140800000D03*
X222100000Y-140800000D03*
X222600000Y-140800000D03*
D31*
X223100000Y-140825000D03*
D33*
X223825000Y-140100000D03*
D34*
X223800000Y-139600000D03*
X223800000Y-139100000D03*
X223800000Y-138600000D03*
X223800000Y-138100000D03*
D33*
X223825000Y-137600000D03*
D31*
X223100000Y-136875000D03*
D32*
X222600000Y-136900000D03*
X222100000Y-136900000D03*
X221600000Y-136900000D03*
X221100000Y-136900000D03*
D31*
X220600000Y-136875000D03*
D33*
X219875000Y-137600000D03*
D34*
X219900000Y-138100000D03*
X219900000Y-138600000D03*
X219900000Y-139100000D03*
X219900000Y-139600000D03*
X219900000Y-140100000D03*
D35*
X221850000Y-138850000D03*
D31*
X220600000Y-124425000D03*
D32*
X221100000Y-124400000D03*
X221600000Y-124400000D03*
X222100000Y-124400000D03*
X222600000Y-124400000D03*
D31*
X223100000Y-124425000D03*
D33*
X223825000Y-123700000D03*
D34*
X223800000Y-123200000D03*
X223800000Y-122700000D03*
X223800000Y-122200000D03*
X223800000Y-121700000D03*
D33*
X223825000Y-121200000D03*
D31*
X223100000Y-120475000D03*
D32*
X222600000Y-120500000D03*
X222100000Y-120500000D03*
X221600000Y-120500000D03*
X221100000Y-120500000D03*
D31*
X220600000Y-120475000D03*
D33*
X219875000Y-121200000D03*
D34*
X219900000Y-121700000D03*
X219900000Y-122200000D03*
X219900000Y-122700000D03*
X219900000Y-123200000D03*
X219900000Y-123700000D03*
D35*
X221850000Y-122450000D03*
D36*
X210450000Y-121000000D03*
X210450000Y-121800000D03*
X210450000Y-122600000D03*
X210450000Y-123400000D03*
X210450000Y-124200000D03*
D37*
X210200000Y-118400000D03*
X204900000Y-118400000D03*
X210200000Y-126800000D03*
X204900000Y-126800000D03*
D38*
X208200000Y-120850000D03*
X208200000Y-124350000D03*
M02*
