M48
;DRILL file {KiCad 4.0.6} date 2017 July 16, Sunday 00:23:16
;FORMAT={-:-/ absolute / metric / decimal}
FMAT,2
METRIC,TZ
T1C0.330
T2C0.800
T3C1.000
T4C1.200
%
G90
G05
M71
T1
X205.Y-135.7
X205.Y-137.45
X205.Y-139.45
X205.Y-141.2
X206.75Y-135.7
X206.75Y-137.45
X206.75Y-139.45
X206.75Y-141.2
X208.75Y-135.7
X208.75Y-137.45
X208.75Y-139.45
X208.75Y-141.2
X210.5Y-135.7
X210.5Y-137.45
X210.5Y-139.45
X210.5Y-141.2
X212.2Y-118.4
X212.2Y-124.2
X212.2Y-126.8
X212.6Y-132.
X213.6Y-133.
X213.8Y-125.3
X214.8Y-136.8
X215.Y-120.4
X215.Y-124.2
X215.2Y-126.7
X215.8Y-141.5
X216.7Y-118.1
X216.7Y-127.4
X217.3Y-133.4
X218.1Y-117.7
X218.8Y-118.5
X218.8Y-122.2
X218.8Y-134.8
X218.8Y-138.6
X219.4Y-119.2
X219.4Y-135.6
X219.7Y-124.6
X219.9Y-142.2
X220.6Y-113.7
X220.7Y-146.3
X220.8Y-150.2
X220.9Y-144.2
X221.1Y-119.4
X221.1Y-135.8
X221.3Y-129.8
X222.1Y-125.5
X222.3Y-142.2
X222.6Y-119.2
X222.6Y-135.6
X223.2Y-132.4
X223.4Y-143.5
X223.5Y-142.2
X224.5Y-142.2
X224.6Y-127.6
X224.6Y-133.6
X224.6Y-136.6
X225.Y-144.8
X225.8Y-140.2
X226.2Y-137.5
X226.6Y-139.7
X226.9Y-123.9
X227.4Y-139.2
X227.8Y-120.5
X227.8Y-123.9
X228.1Y-138.7
X228.2Y-141.8
X228.2Y-142.8
X228.3Y-132.4
X228.7Y-120.5
X228.7Y-123.9
X228.8Y-138.2
X229.4Y-121.2
X229.4Y-124.7
X229.4Y-133.4
X230.Y-135.2
X230.1Y-115.9
X230.6Y-145.5
X232.9Y-132.4
X235.Y-126.3
X235.6Y-115.9
X235.6Y-137.8
X236.Y-135.4
X236.2Y-131.5
X236.5Y-138.4
X236.7Y-126.3
X237.1Y-137.8
X238.Y-115.9
X238.Y-129.8
X238.Y-132.4
X238.Y-135.4
X238.3Y-126.3
X238.3Y-138.5
X238.4Y-128.
X239.7Y-126.3
X240.6Y-146.1
X241.4Y-113.7
X241.5Y-142.6
X241.7Y-144.2
X241.8Y-132.6
X242.2Y-117.
X243.6Y-139.6
X244.3Y-126.1
X244.4Y-134.1
X244.8Y-131.2
X245.3Y-134.1
X245.4Y-117.8
X245.5Y-132.4
X245.7Y-134.9
X245.9Y-128.4
X245.9Y-129.3
X246.2Y-133.1
X246.3Y-126.1
X247.2Y-134.7
X247.6Y-116.1
X248.2Y-131.8
X249.Y-116.1
X250.Y-128.2
X250.7Y-134.7
X251.8Y-116.1
X251.8Y-124.2
X253.2Y-133.1
X253.6Y-137.6
X253.9Y-132.4
X254.Y-129.5
X254.1Y-125.6
X254.6Y-116.
X255.5Y-131.7
X257.4Y-119.9
X260.8Y-139.4
X261.4Y-114.6
X261.4Y-122.6
X261.4Y-149.1
X261.9Y-110.3
X265.3Y-130.
T2
X243.4Y-122.4
X245.4Y-122.4
T3
X245.2Y-136.32
X245.2Y-138.86
X245.2Y-141.4
T4
X207.9Y-112.2
X207.9Y-147.2
X211.4Y-112.2
X211.4Y-147.2
X214.9Y-112.2
X214.9Y-147.2
X228.7Y-112.2
X228.7Y-147.2
X232.2Y-112.2
X232.2Y-147.2
X235.7Y-112.2
X235.7Y-147.2
X249.5Y-112.2
X249.5Y-147.2
X253.Y-112.2
X253.Y-147.2
X256.5Y-147.2
T0
M30
